<?xml version="1.0" encoding="utf-8"?>
<!-- Generator: Adobe Illustrator 24.3.0, SVG Export Plug-In . SVG Version: 6.00 Build 0)  -->
<svg version="1.1" id="Layer_1" xmlns="http://www.w3.org/2000/svg" xmlns:xlink="http://www.w3.org/1999/xlink" x="0px" y="0px"
	 viewBox="0 0 1000 1000" style="enable-background:new 0 0 1000 1000;" xml:space="preserve">
<style type="text/css">
	.st0{fill:#FFFFFF;}
	.st1{fill:url(#SVGID_1_);}
</style>
<g>
	<path class="st0" d="M500,797.5c-79.47,0-154.17-30.95-210.36-87.14C233.45,654.17,202.5,579.46,202.5,500
		c0-79.47,30.95-154.17,87.14-210.36c56.19-56.19,130.9-87.14,210.36-87.14c79.46,0,154.17,30.95,210.36,87.14
		c56.19,56.19,87.14,130.9,87.14,210.36c0,79.46-30.95,154.17-87.14,210.36S579.46,797.5,500,797.5z"/>
	<path class="st0" d="M500,203c40.1,0,78.99,7.85,115.61,23.34c35.37,14.96,67.13,36.37,94.41,63.65
		c27.28,27.28,48.69,59.04,63.65,94.41C789.15,421.01,797,459.9,797,500s-7.85,78.99-23.34,115.61
		c-14.96,35.37-36.37,67.13-63.65,94.41c-27.28,27.28-59.04,48.69-94.41,63.65C578.99,789.15,540.1,797,500,797
		s-78.99-7.85-115.61-23.34c-35.37-14.96-67.13-36.37-94.41-63.65c-27.28-27.28-48.69-59.04-63.65-94.41
		C210.85,578.99,203,540.1,203,500s7.85-78.99,23.34-115.61c14.96-35.37,36.37-67.13,63.65-94.41
		c27.28-27.28,59.04-48.69,94.41-63.65C421.01,210.85,459.9,203,500,203 M500,202c-164.58,0-298,133.42-298,298s133.42,298,298,298
		s298-133.42,298-298S664.58,202,500,202L500,202z"/>
</g>
<g>
	<g>
		<linearGradient id="SVGID_1_" gradientUnits="userSpaceOnUse" x1="492.8565" y1="363.5111" x2="494.1102" y2="637.5967">
			<stop  offset="0" style="stop-color:#5808FB"/>
			<stop  offset="0.1336" style="stop-color:#610DF9"/>
			<stop  offset="0.355" style="stop-color:#7B1AF2"/>
			<stop  offset="0.5674" style="stop-color:#9929EA"/>
			<stop  offset="0.8652" style="stop-color:#9929EA"/>
			<stop  offset="0.9944" style="stop-color:#9929EA"/>
		</linearGradient>
		<path class="st1" d="M358.85,604.9c-19.5,0-35.1-14.99-35.1-33.72V403.06c0-18.73,15.6-34.19,35.1-34.19h269.13
			c19.5,0,35.1,15.45,35.1,34.19v58.07c0,16.39-7.8,31.38-21.94,41.21l-133.59,92.73c-9.26,6.56-19.99,9.83-31.2,9.83H358.85z
			 M341.3,571.18c0,9.37,7.8,16.86,17.55,16.86h117.5c7.31,0,14.63-2.34,20.48-6.56l134.08-93.19c9.26-6.09,14.63-16.39,14.63-27.16
			v-58.07c0-9.37-7.8-16.86-17.55-16.86H358.85c-9.75,0-17.55,7.49-17.55,16.86V571.18z M645.54,519.2h17.55v85.7h-17.55V519.2z"/>
	</g>
</g>
</svg>
